<?xml version="1.0" standalone="no"?>
<!DOCTYPE svg PUBLIC "-//W3C//DTD SVG 20010904//EN"
 "http://www.w3.org/TR/2001/REC-SVG-20010904/DTD/svg10.dtd">
<svg version="1.0" xmlns="http://www.w3.org/2000/svg"
 width="619.000000pt" height="619.000000pt" viewBox="0 0 619.000000 619.000000"
 preserveAspectRatio="xMidYMid meet">
<metadata>
Created by potrace 1.14, written by Peter Selinger 2001-2017
</metadata>
<g transform="translate(0.000000,619.000000) scale(0.100000,-0.100000)"
fill="#000000" stroke="none">
<path d="M5915 5713 c-24 -6 -512 -112 -541 -117 -10 -3 -39 -9 -64 -15 -25
-5 -56 -12 -70 -15 -21 -4 -143 -30 -190 -41 -22 -5 -482 -106 -500 -110 -183
-38 -275 -58 -324 -70 -67 -16 -655 -145 -733 -161 -16 -3 -53 -11 -83 -19
-30 -8 -71 -17 -90 -20 -19 -3 -51 -10 -70 -15 -19 -5 -47 -11 -63 -14 -15 -3
-35 -7 -45 -10 -9 -3 -28 -7 -42 -10 -14 -2 -68 -14 -120 -26 -52 -12 -102
-23 -110 -25 -216 -45 -449 -104 -497 -125 -249 -113 -465 -358 -577 -657 -20
-53 -67 -214 -166 -568 -43 -154 -104 -368 -135 -475 -67 -231 -79 -341 -50
-450 21 -82 38 -113 95 -173 45 -48 119 -93 195 -117 22 -7 65 -29 94 -48 90
-57 119 -63 293 -63 87 -1 161 2 166 5 5 3 24 8 43 11 19 3 63 13 99 21 80 19
79 19 170 39 41 9 82 18 90 20 32 7 106 24 130 29 14 2 45 9 70 15 125 27 389
82 419 87 18 3 42 7 52 9 11 2 19 -2 19 -10 0 -18 -79 -171 -118 -227 -55 -80
-64 -83 -792 -243 -8 -2 -35 -8 -60 -14 -25 -5 -56 -12 -70 -14 -14 -3 -55
-12 -91 -21 -37 -8 -78 -17 -90 -20 -32 -5 -508 -110 -629 -138 -52 -12 -98
-23 -102 -24 -5 -1 -16 -2 -26 -3 -41 -3 -52 -30 -132 -306 -45 -154 -86 -286
-92 -293 -7 -7 -267 -166 -579 -352 -312 -187 -570 -343 -573 -348 -3 -5 43 1
102 14 134 27 262 55 282 59 95 22 199 41 195 35 -3 -4 -74 -49 -159 -99 -85
-50 -165 -100 -178 -111 -23 -19 -23 -19 39 -5 99 23 206 46 238 51 17 3 46 9
65 14 19 5 98 23 175 39 77 17 183 40 235 51 206 45 376 82 399 86 12 3 51 11
85 19 33 8 72 16 86 19 33 6 306 66 785 171 215 47 399 87 410 89 11 2 85 19
165 36 80 18 152 33 160 35 323 65 947 213 995 236 114 54 310 298 430 538 68
137 92 207 223 666 221 769 233 817 235 940 1 139 -25 222 -92 297 -48 54 -89
78 -173 103 -31 9 -75 30 -99 47 -23 16 -58 37 -78 45 -51 22 -191 18 -326 -7
-60 -12 -119 -23 -130 -25 -34 -6 -99 -20 -389 -84 -277 -61 -462 -100 -502
-105 -23 -3 -23 0 -2 74 25 91 19 87 146 115 65 15 143 33 175 41 32 8 73 16
90 19 18 3 48 10 67 15 19 5 46 11 60 14 14 3 34 7 45 10 31 7 167 37 195 42
21 4 63 14 130 29 8 2 47 10 85 19 39 8 189 43 335 77 146 33 275 63 287 66
18 4 27 21 47 87 34 111 109 375 132 465 11 42 28 82 41 95 22 21 188 125 413
256 69 40 153 90 188 111 35 22 65 39 67 39 6 0 475 280 475 284 0 3 -153 -28
-245 -48 -11 -3 -89 -19 -174 -36 -85 -17 -158 -33 -163 -36 -4 -3 -8 -1 -8 4
0 6 81 58 180 116 99 59 180 109 180 111 0 5 -5 5 -35 -2z m-810 -333 c-2 -4
-98 -62 -214 -129 l-209 -122 -32 -117 c-17 -64 -36 -130 -41 -147 -5 -16 -27
-95 -49 -175 -23 -80 -43 -152 -46 -162 -3 -9 -12 -19 -21 -22 -24 -9 -528
-125 -1138 -261 -573 -128 -892 -203 -915 -216 -11 -6 -5 -9 20 -9 19 -1 44
-3 55 -5 11 -3 54 -9 96 -15 41 -6 84 -12 95 -14 10 -2 42 -7 69 -11 28 -4 53
-9 56 -11 3 -2 -9 -59 -28 -126 -58 -208 -85 -319 -79 -333 3 -9 14 -12 28 -9
54 11 125 26 148 30 14 3 41 9 60 14 19 5 46 11 60 14 14 2 59 12 100 21 41 9
84 18 95 21 11 2 83 18 160 35 77 17 149 32 160 35 11 2 196 42 410 89 507
112 569 113 636 17 70 -100 69 -188 -4 -457 -98 -355 -265 -949 -282 -1000
-43 -128 -167 -395 -187 -403 -4 -2 -8 -8 -8 -14 0 -8 -55 -93 -70 -108 -3 -3
-23 -27 -44 -55 -57 -72 -116 -133 -152 -155 -29 -18 -179 -60 -344 -95 -41
-9 -82 -18 -90 -20 -60 -13 -818 -177 -830 -180 -38 -9 -807 -177 -825 -181
-11 -2 -83 -18 -160 -34 -77 -17 -151 -33 -165 -36 -14 -3 -97 -21 -185 -40
-88 -20 -211 -46 -274 -60 -62 -14 -115 -23 -118 -20 -2 2 99 66 225 141 l229
136 78 277 c42 152 81 281 84 285 4 4 21 10 37 13 16 3 108 23 204 44 96 21
186 41 200 44 14 2 79 16 145 31 66 14 129 28 140 30 63 13 362 79 430 95 44
10 91 21 105 24 14 2 45 9 70 15 25 5 61 13 80 16 19 3 51 10 70 15 19 5 95
23 168 41 131 32 135 34 186 83 108 105 186 253 247 469 21 73 27 82 78 125
31 26 58 49 61 52 3 3 39 35 80 70 41 35 86 74 100 87 l24 23 -24 -5 c-14 -3
-36 -7 -50 -10 -14 -3 -36 -7 -50 -10 -14 -3 -38 -8 -55 -11 -16 -2 -68 -14
-115 -24 -88 -20 -332 -73 -530 -116 -63 -13 -153 -33 -200 -44 -109 -24 -729
-161 -755 -166 -11 -2 -31 -6 -45 -9 -14 -3 -36 -8 -50 -10 -14 -3 -75 -6
-136 -7 -103 -2 -115 0 -167 26 -69 33 -113 84 -133 153 -25 87 -16 165 43
371 67 231 174 612 178 632 11 55 122 409 148 470 53 129 129 240 237 348 100
101 252 190 352 207 18 3 103 22 188 41 184 42 151 35 330 74 191 42 417 91
571 126 11 2 29 6 42 9 88 19 222 48 272 60 33 8 146 33 250 55 105 23 199 43
210 46 20 5 99 21 145 30 14 3 95 21 180 40 85 19 169 37 185 40 17 3 63 13
104 23 80 19 103 22 96 11z"/>
</g>
</svg>
